# xmcd CD database file
#
# Track frame offsets:
#	150
#	14876
#	26782
#	41015
#	55627
#	69260
#	82783
#	96603
#	111567
#	124546
#	136847
#	150369
#	164235
#	176950
#	190359
#	203751
#	218215
#	230071
#	242032
#	255060
#	267599
#	279868
#	293810
#	307754
#	321191
#
# Disc length: 4455 seconds
#
# Revision: 0
# Processed by: cddbd v1.5.1PL0 Copyright (c) Steve Scherf et al.
# Submitted via: CDex 1.51
#
DISCID=6c116519
DTITLE=Charlie Poole - With the North Carolina Ramblers and the Highlanders #B
DYEAR=2004
DGENRE=Country
TTITLE0=Take a Drink On Me
TTITLE1=Sunset March
TTITLE2=Wreck of the Virginian No. 3
TTITLE3=Don't Let Your Deal Go Down
TTITLE4=Please Papa Come Home
TTITLE5=The Old Clay Pipe
TTITLE6=A Letter To My Mother
TTITLE7=Poor LitTLEJoe
TTITLE8=We Will Outshine the Sun
TTITLE9=On the Streets of Glory
TTITLE10=I Cannot Call Her Mother
TTITLE11=Pearl Bryant
TTITLE12=Take Back the Ring
TTITLE13=Give My Love to Nell
TTITLE14=My Mother and my Sweetheart
TTITLE15=She is Only a Bird in a Gilded Page
TTITLE16=Bill Mason
TTITLE17=Kitty Blye
TTITLE18=I'm Glad I'm Married
TTITLE19=Sweet Sunny South
TTITLE20=Blue Eyes
TTITLE21=The Bluefield Murder
TTITLE22=I'll Be There Mary Dear
TTITLE23=Home Without Love
TTITLE24=There'll Come a Time
EXTD=YEAR: 2004
EXTT0=
EXTT1=
EXTT2=
EXTT3=
EXTT4=
EXTT5=
EXTT6=
EXTT7=
EXTT8=
EXTT9=
EXTT10=
EXTT11=
EXTT12=
EXTT13=
EXTT14=
EXTT15=
EXTT16=
EXTT17=
EXTT18=
EXTT19=
EXTT20=
EXTT21=
EXTT22=
EXTT23=
EXTT24=
PLAYORDER=
